<svg width="145" height="44" viewBox="0 0 145 44" fill="none" xmlns="http://www.w3.org/2000/svg">
<path d="M36.2155 17.6856C32.1995 20.663 32.4441 26.0223 37.0187 28.5334C36.0655 31.0584 34.8261 33.4011 32.6334 35.1044C32.2227 35.4374 31.7255 35.6464 31.2002 35.7069C30.6749 35.7674 30.1433 35.6769 29.6676 35.446C27.4588 34.382 25.3423 34.3982 23.1358 35.446C22.5923 35.7195 21.9739 35.8064 21.3761 35.6934C20.7783 35.5803 20.2344 35.2736 19.8283 34.8206C15.937 30.7676 13.9359 26.0292 15.1961 20.3468C16.0731 16.4 20.3246 13.7804 24.1975 15.7168C25.7416 16.49 27.0548 16.0676 28.4835 15.4999C31.2855 14.3851 34.2537 15.1375 36.0032 17.3163C36.0826 17.4342 36.1536 17.5576 36.2155 17.6856Z" fill="black"/>
<path d="M25.8988 14.5965C25.6519 11.5152 28.2992 8.53089 31.2235 8.50781C31.7821 11.5429 28.9524 14.8273 25.8988 14.5965Z" fill="black"/>
<path d="M138.989 1H6.01078C3.2434 1 1 3.2434 1 6.01078V38.2497C1 41.017 3.2434 43.2604 6.01078 43.2604H138.989C141.757 43.2604 144 41.017 144 38.2497V6.01078C144 3.2434 141.757 1 138.989 1Z" stroke="black" stroke-miterlimit="10"/>
<path d="M62.791 32.6016V37.5409H60.543V23.2725H62.3894C62.4563 23.651 62.521 24.018 62.6202 24.4981C62.851 24.3296 63.0449 24.2003 63.2203 24.0364C65.1821 22.3239 67.991 22.677 69.452 24.8212C70.6869 26.6469 70.6638 29.9151 69.4059 31.7269C67.8756 33.9311 65.6091 34.2704 62.791 32.6016ZM62.7402 28.1194C62.8302 28.9526 62.8302 29.5042 62.9572 30.0097C63.2226 31.076 63.8989 31.7453 65.0344 31.8561C66.17 31.9669 67.0124 31.5399 67.5087 30.5521C67.8714 29.8727 68.0631 29.1151 68.0671 28.345C68.0712 27.5748 67.8874 26.8153 67.5318 26.1322C67.1025 25.2689 66.3293 24.6596 65.4245 24.8443C64.596 25.0256 63.8499 25.474 63.3011 26.1206C62.8418 26.6976 62.8533 27.6209 62.7402 28.1194Z" fill="black"/>
<path d="M56.1216 33.4127L54.7829 29.2998C53.4304 29.2998 52.0525 29.2721 50.6792 29.3275C50.4484 29.3275 50.1206 29.6622 50.0075 29.916C49.7817 30.4875 49.5921 31.0726 49.4398 31.6678C48.8581 33.6066 48.8604 33.6066 46.6055 33.3689C46.767 32.8219 46.9124 32.291 47.0671 31.7694C48.2996 27.9265 49.5552 24.0928 50.76 20.2407C51.0046 19.4536 51.3577 19.0659 52.2163 19.1882C53.0149 19.3013 53.9035 18.8605 54.2936 20.1738C55.5399 24.3282 56.9363 28.4435 58.2704 32.5772C58.3511 32.8265 58.3858 33.0919 58.455 33.4127H56.1216ZM54.3305 27.4533C53.7073 25.4338 53.1119 23.5066 52.4379 21.3185C52.0917 22.5418 51.8309 23.495 51.5493 24.4436C51.2677 25.3923 50.9561 26.387 50.6261 27.4441L54.3305 27.4533Z" fill="black"/>
<path d="M72.421 23.2712H74.1728C74.2674 23.6497 74.3644 24.0351 74.4821 24.4968C74.8938 24.1381 75.3278 23.8058 75.7815 23.502C77.9672 22.2533 80.6284 23.1489 81.6463 25.54C82.0358 26.425 82.2284 27.3841 82.2109 28.3508C82.1934 29.3176 81.9661 30.269 81.5447 31.1393C80.2822 33.8259 77.3902 34.4422 74.6206 32.5496V37.5534H72.4141L72.421 23.2712ZM79.8621 28.0881C79.8067 27.6433 79.7203 27.203 79.6036 26.7702C79.1605 25.4107 78.1934 24.7091 76.9863 24.813C75.7792 24.9168 74.9091 25.7985 74.7013 27.1672C74.6297 27.7358 74.6065 28.3095 74.6321 28.8821C74.6644 30.74 75.493 31.7948 76.9586 31.8825C78.4704 31.9633 79.5136 30.9593 79.7744 29.159C79.8206 28.8474 79.8206 28.5405 79.8621 28.0904V28.0881Z" fill="black"/>
<path d="M86.5664 32.7002C86.721 32.1555 86.8872 31.5831 86.998 31.1954C88.3298 31.3985 89.5369 31.7101 90.7301 31.7262C92.0665 31.7447 92.8397 31.0546 93.022 30.0367C93.2528 28.8065 92.5789 28.068 91.5749 27.5579C90.6193 27.0732 89.5969 26.7016 88.6829 26.1477C87.3327 25.3306 86.5687 24.1096 86.8157 22.4755C87.0719 20.7791 88.1313 19.7059 89.7538 19.2766C91.4368 18.8018 93.2342 18.946 94.82 19.6828C94.6423 20.2829 94.4738 20.8368 94.3469 21.2707C93.1236 21.1576 92.0388 20.9684 90.9402 20.9845C90.508 20.9663 90.0843 21.1077 89.7497 21.3818C89.4151 21.6559 89.1931 22.0436 89.126 22.4709C88.9391 23.3941 89.4145 24.0381 90.1716 24.4651C90.804 24.8228 91.5241 25.0329 92.1357 25.4183C93.0336 25.9861 94.0468 26.5077 94.7 27.304C95.9925 28.885 95.4409 31.5116 93.7468 32.7279C91.9557 34.0112 88.5421 34.0227 86.5664 32.7002Z" fill="black"/>
<path d="M104.238 28.3348C104.257 25.122 106.27 22.9894 109.288 22.9824C112.307 22.9755 114.322 25.1058 114.281 28.3394C114.239 31.573 112.183 33.7264 109.104 33.6964C106.133 33.6595 104.22 31.5615 104.238 28.3348ZM106.466 28.3163C106.589 28.9882 106.751 29.6525 106.95 30.3059C107.32 31.3353 108.077 31.94 109.203 31.9631C110.292 31.9838 111.049 31.3976 111.421 30.4374C111.692 29.7659 111.848 29.0535 111.883 28.3302C111.957 26.1629 110.844 24.6766 109.254 24.6696C107.664 24.6627 106.572 26.0983 106.466 28.3163Z" fill="black"/>
<path d="M125.129 28.8847C125.101 30.4773 125.821 31.5897 127.187 31.7628C128.415 31.9221 129.68 31.7975 131.056 31.7975C131.118 32.0629 131.222 32.4899 131.319 32.903C128.935 34.2463 125.516 33.8401 123.988 32.086C122.373 30.2395 122.354 26.8721 123.926 24.7718C124.554 23.9592 125.431 23.3754 126.423 23.1101C127.416 22.8449 128.467 22.913 129.417 23.3038C131.056 23.9963 132.286 26.332 131.893 28.2108C131.836 28.4877 131.291 28.8455 130.97 28.8547C129.045 28.9147 127.134 28.8847 125.129 28.8847ZM129.634 27.2114C129.634 25.4457 128.817 24.5156 127.395 24.5756C126.047 24.6333 125.087 25.7688 125.214 27.2114H129.634Z" fill="black"/>
<path d="M98.1856 24.9688L96.8008 24.8534V23.2908L98.024 23.1108C98.4303 21.0774 98.4303 21.0774 100.348 20.7773C100.371 21.1489 100.404 21.5113 100.415 21.8737C100.427 22.236 100.415 22.6284 100.415 23.1316L102.883 23.24V24.888H100.528C100.528 26.8706 100.459 28.7401 100.551 30.6004C100.614 31.8906 101.705 31.8237 102.751 31.7544C102.779 32.3453 102.802 32.8577 102.822 33.3401C100.021 34.3048 98.3056 33.1947 98.2064 30.3742C98.1325 28.6224 98.1856 26.8568 98.1856 24.9688Z" fill="black"/>
<path d="M116.363 23.2722H118.09C118.17 23.7199 118.249 24.1562 118.357 24.747C119.255 23.6715 120.114 22.7529 121.642 23.0691V25.0494C121.15 25.1371 120.61 25.1532 120.13 25.331C118.953 25.7695 118.602 26.7735 118.584 27.9114C118.556 29.707 118.584 31.5027 118.584 33.3837H116.37L116.363 23.2722Z" fill="black"/>
<path d="M47.9336 14.0788V7.15461C49.8631 7.10614 51.818 6.65145 53.1406 8.53944C53.8884 9.60114 53.7845 11.7938 52.9398 12.8001C51.6057 14.395 49.817 14.3165 47.9336 14.0788ZM52.4366 10.462C52.4204 8.86718 51.3957 7.89318 49.8054 7.92319C49.2492 7.92319 48.9584 8.10321 48.9745 8.72408C49.0045 9.98889 49.0068 11.2629 48.9745 12.5208C48.9561 13.1648 49.263 13.2871 49.817 13.2779C51.4834 13.2525 52.4528 12.2231 52.4366 10.462Z" fill="black"/>
<path d="M66.33 12.4244C66.5608 11.5428 66.7778 10.6565 67.0224 9.78173C67.2301 9.06854 67.2532 9.07546 68.2642 9.22087C67.8025 10.6865 67.3756 12.1475 66.8793 13.5831C66.8048 13.7162 66.7007 13.8304 66.5751 13.9168C66.4494 14.0033 66.3055 14.0597 66.1546 14.0816C65.9653 14.0978 65.6307 13.8047 65.5522 13.5808C65.2383 12.6968 64.996 11.7851 64.6521 10.6265C64.2943 11.7251 64.0497 12.5999 63.7104 13.4354C63.595 13.7146 63.2303 14.0678 62.981 14.0678C62.7318 14.0678 62.3786 13.6939 62.2886 13.41C61.827 12.039 61.4554 10.6403 61.0469 9.23703C62.4525 8.70156 62.2655 9.81866 62.4663 10.4303C62.6971 11.1227 62.8172 11.8336 63.0664 12.8699C63.4449 11.6351 63.6988 10.7026 64.0243 9.79557C64.1235 9.52092 64.4143 9.3155 64.6174 9.08008C64.8621 9.31088 65.2221 9.50938 65.3283 9.79788C65.6422 10.6519 65.8569 11.5428 66.1107 12.4221L66.33 12.4244Z" fill="black"/>
<path d="M94.2851 9.26648C94.9775 8.53714 93.6642 7.01382 95.5083 6.69531V13.8757C94.6105 13.9957 93.7081 14.2196 92.8033 14.2149C91.5477 14.2149 90.7122 12.8878 90.8461 11.316C90.9753 9.82042 92.0001 8.84873 93.3018 9.00798C93.6359 9.0682 93.9646 9.15463 94.2851 9.26648ZM94.5159 11.5353C94.479 10.7598 94.3889 9.88735 93.2926 9.88966C92.2448 9.88966 92.014 10.7136 92.0047 11.5722C91.9955 12.4308 92.2355 13.2733 93.2557 13.294C94.2758 13.3148 94.479 12.4631 94.5067 11.5353H94.5159Z" fill="black"/>
<path d="M123.658 13.9882C123.658 13.0235 123.674 12.1072 123.658 11.1909C123.642 10.5285 123.448 9.91683 122.651 9.91221C121.855 9.90759 121.532 10.4685 121.521 11.2163C121.521 11.9087 121.488 12.6011 121.521 13.2935C121.551 14.0436 121.237 14.2629 120.422 13.9859C120.422 11.8048 120.422 9.58678 120.445 7.37104C120.445 7.16332 120.761 6.96483 120.93 6.76172C121.124 6.98098 121.456 7.18409 121.484 7.42182C121.531 8.11781 121.541 8.81591 121.511 9.51292C123.605 8.47199 124.729 9.14132 124.782 11.327C124.798 11.9802 124.768 12.6334 124.798 13.2843C124.826 14.0252 124.496 14.249 123.658 13.9882Z" fill="black"/>
<path d="M83.8281 11.6122C83.8027 13.1955 82.7249 14.2988 81.2546 14.248C79.7844 14.1972 78.8704 13.117 78.9073 11.5406C78.9443 9.96425 79.939 8.96255 81.4116 8.97871C82.8841 8.99486 83.8535 10.0566 83.8281 11.6122ZM82.6418 11.4252C82.5771 10.7097 82.411 9.91347 81.3608 9.83961C80.5761 9.78653 79.976 10.592 80.0429 11.6399C80.0937 12.4685 80.2737 13.2878 81.3308 13.364C82.1086 13.4217 82.6487 12.6347 82.6418 11.4252Z" fill="black"/>
<path d="M59.9054 11.5896C59.9054 13.1476 58.8044 14.2785 57.3388 14.2485C55.9171 14.2208 54.9177 13.0945 54.95 11.5596C54.9823 10.0248 56.0001 8.97924 57.4565 8.97462C58.9129 8.97001 59.9169 10.0386 59.9054 11.5896ZM56.104 11.7327C56.1779 12.4252 56.3163 13.2399 57.3504 13.3645C58.1305 13.4592 58.7352 12.6721 58.719 11.6058C58.7006 10.768 58.5298 9.95785 57.4819 9.84938C56.6787 9.76398 56.1086 10.5187 56.104 11.7327Z" fill="black"/>
<path d="M105.235 11.7032C105.165 13.2357 104.115 14.2813 102.682 14.242C101.214 14.2074 100.245 13.0534 100.316 11.4331C100.385 9.9075 101.431 8.91966 102.924 8.97274C104.371 9.03044 105.304 10.1291 105.235 11.7032ZM101.477 11.7724C101.544 12.481 101.708 13.2865 102.754 13.3603C103.508 13.4134 104.12 12.5664 104.076 11.5393C104.039 10.6876 103.804 9.9075 102.77 9.83365C101.98 9.77594 101.459 10.533 101.477 11.7724Z" fill="black"/>
<path d="M85.6087 9.99001C85.6021 9.77874 85.6192 9.5674 85.6595 9.35991C86.435 9.24682 87.2751 8.95369 87.9675 9.1545C88.4684 9.2999 89.0246 10.0777 89.1215 10.6363C89.3039 11.7141 89.1746 12.8428 89.1746 13.9368C88.3091 14.0406 87.439 14.2991 86.6196 14.1884C86.3238 14.12 86.0461 13.9891 85.8053 13.8043C85.5644 13.6196 85.3659 13.3854 85.2232 13.1174C84.8932 12.4019 85.2602 11.6472 86.0149 11.3079C86.6312 11.0286 87.3213 10.9178 88.0575 10.7101C87.6698 9.25836 86.5919 9.94385 85.6087 9.99001ZM88.0529 11.7118C87.2243 11.6449 86.4373 11.5872 86.3242 12.5773C86.2942 12.8081 86.7858 13.3367 87.0166 13.3367C87.9906 13.3321 88.1776 12.6558 88.0529 11.7118Z" fill="black"/>
<path d="M130.763 11.8738H127.619C127.82 13.104 128.312 13.4202 129.565 13.3487C129.898 13.3702 130.228 13.433 130.546 13.5356C130.246 13.7503 129.973 14.0849 129.643 14.1565C128.566 14.3873 127.534 14.2096 126.874 13.2333C126.181 12.2223 126.269 11.1122 126.839 10.0712C127.102 9.61826 127.515 9.27122 128.006 9.09003C128.497 8.90883 129.036 8.90485 129.53 9.07878C130.532 9.44576 130.947 10.3205 130.763 11.8738ZM127.707 10.5167C127.707 10.5167 127.622 10.8675 127.707 10.9783H129.694C129.763 10.8652 129.694 10.5698 129.694 10.5698C129.645 10.3595 129.527 10.1712 129.361 10.0337C129.194 9.89615 128.987 9.81694 128.771 9.80812C128.543 9.80607 128.32 9.87253 128.13 9.99886C127.94 10.1252 127.793 10.3056 127.707 10.5167Z" fill="black"/>
<path d="M74.0902 13.9887C73.2986 14.2495 72.9362 14.081 72.9731 13.2524C73.0101 12.5254 73.0932 11.766 72.9293 11.0759C72.8231 10.6351 72.3084 10.2935 71.9761 9.90806C71.6114 10.282 71.0044 10.6166 70.9351 11.039C70.7782 12.0015 70.8844 13.0101 70.8844 13.9933C70.0696 14.2241 69.6865 14.1064 69.7165 13.2617C69.758 12.1076 69.6888 10.9536 69.7465 9.79958C69.7603 9.54339 70.1042 9.30566 70.2958 9.05639C70.8613 9.66802 71.3875 9.16717 71.9484 9.02408C73.0054 8.75403 73.961 9.39798 74.0672 10.5589C74.1733 11.7199 74.0902 12.8485 74.0902 13.9887Z" fill="black"/>
<path d="M111.251 13.9903C110.357 14.2695 110.129 13.9441 110.154 13.2379C110.182 12.4739 110.249 11.6822 110.085 10.9506C109.993 10.549 109.437 9.95811 109.127 9.97888C108.749 10.0066 108.163 10.549 108.103 10.9344C107.957 11.9038 108.054 12.9124 108.054 13.9349C107.239 14.2649 106.849 14.1357 106.875 13.2425C106.905 12.1715 106.858 11.096 106.875 10.0112C106.918 9.69595 106.995 9.38636 107.105 9.08797L108.209 9.42495C109.979 8.38863 111.209 9.08566 111.239 11.3268C111.258 12.1946 111.251 13.0809 111.251 13.9903Z" fill="black"/>
<path d="M117.722 7.97656C117.761 8.27661 117.803 9.01287 117.828 9.19059L118.982 9.17213V9.68913H117.839L117.8 10.2431C117.8 10.7508 117.706 11.9187 117.8 12.6596C117.822 12.8183 117.893 12.9665 118.002 13.0841C118.111 13.2017 118.253 13.2831 118.41 13.3174L119.028 13.5644C119.028 13.5644 118.689 14.0675 118.476 14.0883C117.583 14.176 116.815 13.9013 116.725 12.9596C116.658 12.2672 116.692 11.5748 116.672 10.8824C116.672 10.617 116.782 9.86916 116.672 9.64297L115.635 9.61066C115.627 9.45571 115.64 9.30035 115.675 9.14905L116.598 9.17905V7.92578L117.722 7.97656Z" fill="black"/>
<path d="M76.1052 13.985C76.1052 11.7739 76.0867 9.63205 76.1329 7.49018C76.1329 7.24091 76.5114 6.99856 76.7145 6.75391C76.8923 6.98471 77.2154 7.21552 77.22 7.46709C77.2615 9.41971 77.22 11.3746 77.25 13.3295C77.2615 14.1397 76.8623 14.2112 76.1052 13.985Z" fill="black"/>
</svg>
