<svg width="145" height="44" viewBox="0 0 145 44" fill="none" xmlns="http://www.w3.org/2000/svg">
<path d="M138.989 1H6.01078C3.2434 1 1 3.24338 1 6.01073V38.2493C1 41.0166 3.2434 43.26 6.01078 43.26H138.989C141.757 43.26 144 41.0166 144 38.2493V6.01073C144 3.24338 141.757 1 138.989 1Z" stroke="black" stroke-miterlimit="10"/>
<path d="M58.6261 13.0579H55.4684L54.7594 15.0248H53.7344L56.6125 7.4883H57.482L60.3652 15.0248H59.3455L58.6261 13.0579ZM55.7687 12.24H58.3309L57.0471 8.71504L55.7687 12.24ZM62.8186 13.7256L64.206 9.42418H65.1842L63.1759 15.0248H62.4461L60.4169 9.42418H61.3953L62.8186 13.7256ZM69.4806 15.0248C69.4252 14.9144 69.3804 14.7177 69.3458 14.4347C68.9008 14.8971 68.3693 15.1283 67.7516 15.1283C67.1996 15.1283 66.7458 14.973 66.3904 14.6625C66.0384 14.3484 65.8623 13.9516 65.8623 13.4719C65.8623 12.8888 66.0831 12.4367 66.5249 12.1158C66.9701 11.7914 67.5947 11.6292 68.3986 11.6292H69.3303V11.1892C69.3303 10.8545 69.2304 10.5888 69.0301 10.3921C68.83 10.192 68.535 10.0919 68.1449 10.0919C67.8033 10.0919 67.5169 10.1782 67.2859 10.3507C67.0546 10.5233 66.939 10.732 66.939 10.977H65.9763C65.9763 10.6975 66.0746 10.4284 66.2713 10.1696C66.4714 9.9073 66.7405 9.70025 67.0788 9.54843C67.4204 9.39658 67.7948 9.32067 68.2019 9.32067C68.8473 9.32067 69.3527 9.48285 69.7186 9.80722C70.0844 10.1282 70.2741 10.5716 70.288 11.1375V13.7152C70.288 14.2294 70.3535 14.6383 70.4846 14.942V15.0248H69.4806ZM67.8915 14.295C68.1916 14.295 68.4764 14.2173 68.7455 14.062C69.0146 13.9067 69.2096 13.7049 69.3303 13.4564V12.3073H68.5798C67.4066 12.3073 66.8199 12.6507 66.8199 13.3374C66.8199 13.6376 66.92 13.8722 67.1202 14.0413C67.3203 14.2104 67.5774 14.295 67.8915 14.295ZM72.8296 15.0248H71.872V9.42418H72.8296V15.0248ZM71.7942 7.93862C71.7942 7.78334 71.8408 7.65222 71.9341 7.54524C72.0305 7.43826 72.172 7.38479 72.3585 7.38479C72.5448 7.38479 72.6863 7.43826 72.783 7.54524C72.8794 7.65222 72.9279 7.78334 72.9279 7.93862C72.9279 8.09391 72.8794 8.22332 72.783 8.32683C72.6863 8.43037 72.5448 8.48212 72.3585 8.48212C72.172 8.48212 72.0305 8.43037 71.9341 8.32683C71.8408 8.22332 71.7942 8.09391 71.7942 7.93862ZM79.6912 15.0248C79.6361 14.9144 79.5913 14.7177 79.5567 14.4347C79.1117 14.8971 78.5802 15.1283 77.9625 15.1283C77.4104 15.1283 76.9567 14.973 76.6012 14.6625C76.2493 14.3484 76.0731 13.9516 76.0731 13.4719C76.0731 12.8888 76.294 12.4367 76.7358 12.1158C77.1808 11.7914 77.8056 11.6292 78.6095 11.6292H79.5412V11.1892C79.5412 10.8545 79.4411 10.5888 79.241 10.3921C79.0408 10.192 78.7459 10.0919 78.3558 10.0919C78.0142 10.0919 77.7278 10.1782 77.4968 10.3507C77.2655 10.5233 77.1499 10.732 77.1499 10.977H76.1872C76.1872 10.6975 76.2855 10.4284 76.4821 10.1696C76.6822 9.9073 76.9514 9.70025 77.2895 9.54843C77.6313 9.39658 78.0057 9.32067 78.4128 9.32067C79.0582 9.32067 79.5636 9.48285 79.9294 9.80722C80.2953 10.1282 80.485 10.5716 80.4988 11.1375V13.7152C80.4988 14.2294 80.5644 14.6383 80.6955 14.942V15.0248H79.6912ZM78.1022 14.295C78.4024 14.295 78.6873 14.2173 78.9564 14.062C79.2255 13.9067 79.4205 13.7049 79.5412 13.4564V12.3073H78.7907C77.6175 12.3073 77.0308 12.6507 77.0308 13.3374C77.0308 13.6376 77.1309 13.8722 77.331 14.0413C77.5311 14.2104 77.7883 14.295 78.1022 14.295ZM86.7414 12.2866C86.7414 13.1424 86.5446 13.8308 86.1513 14.3519C85.758 14.8695 85.2299 15.1283 84.5672 15.1283C83.8598 15.1283 83.313 14.8781 82.9264 14.3778L82.8798 15.0248H82V7.07422H82.9576V10.0402C83.344 9.5605 83.8771 9.32067 84.5571 9.32067C85.2368 9.32067 85.77 9.57774 86.1563 10.0919C86.5464 10.6061 86.7414 11.31 86.7414 12.2038V12.2866ZM85.7838 12.1779C85.7838 11.5257 85.6578 11.0219 85.406 10.6665C85.154 10.311 84.7916 10.1333 84.3189 10.1333C83.6874 10.1333 83.2337 10.4266 82.9576 11.0133V13.4357C83.251 14.0224 83.7082 14.3157 84.3293 14.3157C84.7881 14.3157 85.1454 14.1379 85.4007 13.7825C85.6562 13.4271 85.7838 12.8922 85.7838 12.1779ZM88.9929 15.0248H88.0353V7.07422H88.9929V15.0248ZM92.8545 15.1283C92.0952 15.1283 91.4776 14.8799 91.0014 14.3829C90.5253 13.8826 90.2871 13.2149 90.2871 12.3798V12.2038C90.2871 11.6482 90.3923 11.153 90.6028 10.7182C90.8168 10.28 91.1136 9.93834 91.493 9.69335C91.8761 9.44489 92.2902 9.32067 92.7354 9.32067C93.4636 9.32067 94.0296 9.5605 94.4332 10.0402C94.8369 10.5198 95.0389 11.2065 95.0389 12.1003V12.4988H91.2447C91.2585 13.051 91.4189 13.4978 91.7261 13.8394C92.0366 14.1776 92.4301 14.3467 92.9062 14.3467C93.2444 14.3467 93.5308 14.2777 93.7655 14.1397C94 14.0016 94.2054 13.8187 94.3815 13.591L94.9664 14.0465C94.4969 14.7677 93.793 15.1283 92.8545 15.1283ZM92.7354 10.1074C92.3488 10.1074 92.0246 10.2489 91.7624 10.5319C91.4999 10.8114 91.3379 11.2048 91.2758 11.712H94.0813V11.6396C94.0536 11.153 93.9225 10.7769 93.6877 10.5112C93.4532 10.242 93.1357 10.1074 92.7354 10.1074ZM98.5275 12.1727C98.5275 11.6241 98.6346 11.1306 98.8485 10.6924C99.066 10.2541 99.3662 9.91593 99.7492 9.67781C100.136 9.43972 100.576 9.32067 101.069 9.32067C101.832 9.32067 102.448 9.58464 102.917 10.1126C103.39 10.6406 103.626 11.3428 103.626 12.2193V12.2866C103.626 12.8318 103.521 13.3218 103.31 13.7566C103.103 14.188 102.805 14.5244 102.415 14.766C102.028 15.0075 101.583 15.1283 101.08 15.1283C100.32 15.1283 99.7044 14.8643 99.2315 14.3364C98.7622 13.8084 98.5275 13.1096 98.5275 12.24V12.1727ZM99.4904 12.2866C99.4904 12.9077 99.6335 13.4064 99.9199 13.7825C100.21 14.1586 100.596 14.3467 101.08 14.3467C101.566 14.3467 101.952 14.1569 102.239 13.7773C102.525 13.3943 102.669 12.8594 102.669 12.1727C102.669 11.5585 102.522 11.0616 102.229 10.682C101.939 10.2989 101.552 10.1074 101.069 10.1074C100.596 10.1074 100.215 10.2955 99.9253 10.6717C99.6354 11.0478 99.4904 11.5861 99.4904 12.2866ZM105.733 9.42418L105.764 10.1282C106.192 9.58983 106.751 9.32067 107.441 9.32067C108.625 9.32067 109.222 9.98838 109.232 11.3238V15.0248H108.274V11.3187C108.271 10.9149 108.178 10.6164 107.995 10.4232C107.816 10.2299 107.534 10.1333 107.151 10.1333C106.841 10.1333 106.568 10.2161 106.333 10.3818C106.099 10.5474 105.916 10.7648 105.785 11.034V15.0248H104.827V9.42418H105.733Z" fill="black"/>
<path d="M74 15.0248H74.9576V7.07422H74V15.0248Z" fill="black"/>
<path d="M57.8429 19.5154V22.1723H59.7724V23.9908H57.8429V30.0925C57.8429 30.51 57.9237 30.8131 58.0855 31.0016C58.2537 31.1835 58.5501 31.2744 58.9743 31.2744C59.2573 31.2744 59.5435 31.2407 59.8331 31.1733V33.0726C59.2741 33.2275 58.7352 33.3048 58.2168 33.3048C56.3309 33.3048 55.388 32.2644 55.388 30.1832V23.9908H53.5898V22.1723H55.388V19.5154H57.8429ZM64.076 23.3644C64.8774 22.435 65.8911 21.9703 67.1169 21.9703C69.4471 21.9703 70.629 23.3004 70.6627 25.9607V33.1029H68.2079V26.0516C68.2079 25.2973 68.0429 24.7651 67.7128 24.4554C67.3895 24.1389 66.9115 23.9806 66.2784 23.9806C65.2949 23.9806 64.5609 24.4184 64.076 25.2939V33.1029H61.6212V17.5859H64.076V23.3644ZM77.9666 33.3048C76.4109 33.3048 75.148 32.8167 74.1781 31.8401C73.2152 30.8567 72.7335 29.5503 72.7335 27.9204V27.6174C72.7335 26.5264 72.9424 25.5531 73.3599 24.6979C73.7841 23.8359 74.3769 23.1657 75.1381 22.6875C75.899 22.2094 76.7477 21.9703 77.6836 21.9703C79.1721 21.9703 80.3203 22.4451 81.1286 23.3947C81.9436 24.3444 82.3509 25.6879 82.3509 27.4253V28.4155H75.2087C75.2828 29.3179 75.5823 30.0318 76.1077 30.5571C76.6399 31.0824 77.3065 31.3451 78.1081 31.3451C79.2328 31.3451 80.1486 30.8904 80.8558 29.9812L82.1792 31.244C81.7414 31.8974 81.1556 32.4058 80.4214 32.7693C79.6941 33.1264 78.8757 33.3048 77.9666 33.3048ZM77.6737 23.9402C77.0002 23.9402 76.4546 24.1759 76.037 24.6474C75.6262 25.1187 75.3635 25.7753 75.2491 26.6173H79.9263V26.4354C79.8726 25.6138 79.6538 24.9943 79.2697 24.5765C78.8859 24.1523 78.3539 23.9402 77.6737 23.9402ZM96.0395 29.4661L98.3024 18.3941H100.838L97.4438 33.1029H94.9988L92.2006 22.3642L89.3418 33.1029H86.887L83.4925 18.3941H86.0281L88.3113 29.4458L91.1197 18.3941H93.2613L96.0395 29.4661ZM106.96 33.3048C105.404 33.3048 104.142 32.8167 103.172 31.8401C102.209 30.8567 101.727 29.5503 101.727 27.9204V27.6174C101.727 26.5264 101.936 25.5531 102.353 24.6979C102.778 23.8359 103.37 23.1657 104.131 22.6875C104.892 22.2094 105.741 21.9703 106.677 21.9703C108.166 21.9703 109.314 22.4451 110.122 23.3947C110.937 24.3444 111.344 25.6879 111.344 27.4253V28.4155H104.202C104.276 29.3179 104.576 30.0318 105.101 30.5571C105.633 31.0824 106.3 31.3451 107.101 31.3451C108.226 31.3451 109.142 30.8904 109.849 29.9812L111.173 31.244C110.735 31.8974 110.149 32.4058 109.415 32.7693C108.687 33.1264 107.869 33.3048 106.96 33.3048ZM106.667 23.9402C105.993 23.9402 105.448 24.1759 105.031 24.6474C104.62 25.1187 104.357 25.7753 104.243 26.6173H108.92V26.4354C108.866 25.6138 108.647 24.9943 108.263 24.5765C107.879 24.1523 107.347 23.9402 106.667 23.9402ZM122.851 27.7487C122.851 29.4458 122.47 30.7962 121.709 31.7997C120.955 32.803 119.915 33.3048 118.588 33.3048C117.308 33.3048 116.311 32.8434 115.598 31.9209L115.476 33.1029H113.254V17.5859H115.709V23.2229C116.416 22.3878 117.369 21.9703 118.568 21.9703C119.901 21.9703 120.948 22.4653 121.709 23.4553C122.47 24.4452 122.851 25.8293 122.851 27.6072V27.7487ZM120.396 27.5366C120.396 26.3512 120.187 25.4621 119.77 24.8697C119.352 24.277 118.746 23.9806 117.951 23.9806C116.887 23.9806 116.14 24.4452 115.709 25.3747V29.8802C116.146 30.8299 116.901 31.3047 117.971 31.3047C118.739 31.3047 119.332 31.0185 119.749 30.4459C120.167 29.8735 120.383 29.0082 120.396 27.8498V27.5366Z" fill="black"/>
<path d="M16.6328 22.1315H21.7105C21.771 24.1925 22.1413 26.2326 22.8092 28.1831H18.3131C17.2936 26.3226 16.7185 24.2514 16.6328 22.1315ZM31.0535 13.7487V7.71094C31.5266 7.73171 31.9951 7.77556 32.4544 7.84019C34.1342 9.55 35.4875 11.5524 36.4474 13.7487H31.0535ZM36.9159 14.9143C37.6155 16.858 38.0002 18.9009 38.0561 20.9659H31.0535V14.9143H36.9159ZM29.8879 13.7487H24.5009C25.4675 11.5509 26.827 9.54787 28.5123 7.83788C28.9647 7.77325 29.4263 7.73095 29.8971 7.71094L29.8879 13.7487ZM29.8879 14.9143V20.9659H22.883C22.9438 18.9002 23.3334 16.8574 24.037 14.9143H29.8879ZM21.7175 20.9659H16.6397C16.7259 18.8459 17.3018 16.7746 18.3223 14.9143H22.8092C22.1437 16.8653 21.7756 18.9054 21.7175 20.9659ZM22.8715 22.12H29.8763V28.1715H24.0301C23.33 26.2319 22.9428 24.193 22.883 22.1315L22.8715 22.12ZM29.8763 29.3371V35.3749C29.4147 35.3534 28.9531 35.3112 28.4915 35.248C26.8055 33.5386 25.4458 31.5355 24.4801 29.3371H29.8763ZM31.0304 29.3371H36.4243C35.4644 31.5334 34.1112 33.5359 32.4314 35.2456C31.9698 35.3103 31.5081 35.3541 31.0304 35.3749V29.3371ZM31.0304 28.1831V22.1315H38.0353C37.9772 24.1962 37.5922 26.2388 36.8951 28.1831H31.0304ZM39.2009 22.1315H44.2786C44.193 24.2514 43.6178 26.3226 42.5983 28.1831H38.1207C38.7875 26.2321 39.1593 24.1923 39.224 22.1315H39.2009ZM39.2009 20.9775C39.1457 18.9178 38.7822 16.878 38.123 14.9258H42.6029C43.6291 16.7808 44.2121 18.8481 44.3063 20.9659L39.2009 20.9775ZM41.8875 13.7603H37.7168C36.9092 11.7706 35.7965 9.91891 34.4186 8.27179C37.4698 9.18501 40.1146 11.1185 41.9105 13.7487L41.8875 13.7603ZM26.5528 8.27179C25.1686 9.91427 24.0481 11.762 23.2315 13.7487H19.0309C20.8349 11.1135 23.491 9.17956 26.5528 8.27179ZM19.0309 29.3486H23.2315C24.0467 31.3379 25.1663 33.188 26.5504 34.8325C23.4886 33.9225 20.8333 31.986 19.0309 29.3486ZM34.4186 34.814C35.7951 33.1712 36.9078 31.3243 37.7168 29.3394H41.9105C40.1137 31.9682 37.4691 33.9008 34.4186 34.814Z" fill="black"/>
</svg>
