<svg width="145" height="44" viewBox="0 0 145 44" fill="none" xmlns="http://www.w3.org/2000/svg">
<path d="M23.978 22.1035L11.0898 35.062V9.11719L23.978 22.1035Z" fill="white"/>
<path d="M56.157 21.0082L54.8137 22.1665C53.4819 21.2005 51.9586 20.4824 50.2807 21.0383C49.2682 21.3645 48.3436 21.9192 47.5779 22.6599C46.0154 24.2421 45.8584 26.7138 46.9709 28.662C48.0834 30.6101 50.253 31.5391 52.6118 31.0572C54.4213 30.6866 55.6492 29.3407 55.8546 27.3948H51.4347V25.5254H57.7726C58.1228 26.9869 57.9249 28.5266 57.2166 29.851C56.5082 31.1754 55.3391 32.1918 53.932 32.7066C50.65 33.9552 46.7517 32.5328 45.0691 29.4635C44.2295 27.9706 43.9673 26.2195 44.3326 24.5449C44.6979 22.8702 45.6651 21.3893 47.0494 20.3851C49.8745 18.3049 53.7104 18.4902 56.157 21.0082Z" fill="white"/>
<path d="M85.1764 24.5109L87.2537 24.2213C87.2537 27.3416 87.3414 30.2697 87.226 33.1885C87.136 35.4401 85.8665 36.7999 83.8816 37.1659C81.8044 37.5505 80.0895 36.6818 78.9608 34.5552L80.5488 33.8371C81.4466 35.1297 82.5799 35.922 84.154 35.1506C85.2872 34.5992 85.4211 33.529 85.308 32.3708C82.7691 33.5591 80.8304 33.1885 79.4548 31.3005C78.8189 30.4394 78.503 29.3823 78.5616 28.3121C78.6202 27.2418 79.0496 26.2258 79.7756 25.4398C81.1743 23.8646 83.1523 23.5982 85.1764 24.5109ZM85.518 28.5254C85.4996 27.0243 84.4148 25.7965 83.1015 25.7849C81.7167 25.7849 80.5349 27.1192 80.5765 28.6806C80.618 30.1585 81.7144 31.3144 83.0853 31.3214C84.4956 31.3191 85.5388 30.1191 85.518 28.5161V28.5254Z" fill="white"/>
<path d="M24.9045 22.8711L28.6458 26.7026C26.4901 28.5558 12.8334 35.9339 11.9609 35.8204L24.9045 22.8711Z" fill="white"/>
<path d="M24.7003 21.4066L11.6367 8.28125C12.2507 8.39244 12.7561 8.36233 13.1277 8.57081C18.3462 11.5081 23.5463 14.4779 28.6725 17.3944L24.7003 21.4066Z" fill="white"/>
<path d="M106.392 27.8619V32.8238H104.492V19.5271C106.406 19.5271 108.328 19.351 110.202 19.5734C112.238 19.8051 113.591 21.6444 113.593 23.6342C113.592 24.608 113.241 25.5487 112.605 26.2842C111.969 27.0197 111.091 27.5008 110.131 27.6395C108.972 27.8317 107.777 27.7877 106.392 27.8619ZM106.528 21.3061V25.9021C107.578 25.9021 108.534 25.9785 109.473 25.8836C110.051 25.8367 110.59 25.5716 110.981 25.1417C111.372 24.7118 111.586 24.1491 111.58 23.5671C111.555 22.3463 110.588 21.3872 109.272 21.3316C108.397 21.2691 107.52 21.3061 106.528 21.3061Z" fill="white"/>
<path d="M25 22.1462C26.4471 20.7331 27.6635 19.5007 28.9398 18.3355C29.0897 18.2272 29.2634 18.1566 29.4461 18.1295C29.6288 18.1025 29.8154 18.1199 29.99 18.1803C31.5526 19.0073 33.0874 19.8899 34.6061 20.8049C35.9009 21.5856 35.9356 22.6095 34.6684 23.3901C33.1313 24.3376 31.5526 25.2225 29.9577 26.0773C29.7983 26.1355 29.6273 26.1545 29.459 26.1328C29.2907 26.111 29.1301 26.0491 28.9906 25.9522C27.6796 24.7638 26.4218 23.5175 25 22.1462Z" fill="white"/>
<path d="M118.123 25.9539C119.062 24.2791 120.893 23.6096 122.954 24.1377C124.588 24.5594 125.615 25.8357 125.654 27.594C125.691 29.2873 125.654 30.983 125.654 32.7459C124.814 32.8107 123.951 33.3389 123.565 32.1204C121.915 33.2995 120.482 33.4292 119.104 32.5328C117.313 31.3745 117.311 28.9561 119.12 27.8233C120.519 26.9477 122.014 26.9407 123.549 27.5059C123.434 26.0419 121.779 25.3122 120.463 26.0743C119.402 26.6952 119.402 26.6952 118.123 25.9539ZM123.676 29.2734C123.262 28.9746 122.775 28.7922 122.267 28.7454C121.759 28.6986 121.248 28.7889 120.786 29.007C120.364 29.1993 119.863 29.8642 119.907 30.258C119.951 30.6518 120.599 31.1382 121.061 31.2494C122.254 31.5343 123.201 30.7676 123.676 29.2734Z" fill="white"/>
<path d="M63.228 24.0079C63.8248 24.0139 64.4146 24.138 64.9636 24.3728C65.5127 24.6076 66.0103 24.9487 66.428 25.3766C66.8457 25.8044 67.1754 26.3107 67.3981 26.8664C67.6209 27.4221 67.7325 28.0164 67.7264 28.6154C67.7204 29.2144 67.5968 29.8063 67.3628 30.3574C67.1288 30.9084 66.789 31.4078 66.3627 31.8271C65.9364 32.2463 65.432 32.5772 64.8783 32.8008C64.3247 33.0244 63.7325 33.1363 63.1357 33.1303C62.5392 33.1337 61.948 33.018 61.3964 32.7901C60.8449 32.5621 60.344 32.2264 59.9228 31.8024C59.5017 31.3784 59.1687 30.8746 58.9433 30.3204C58.7178 29.7661 58.6044 29.1724 58.6096 28.5737C58.5842 25.9746 60.5899 23.9963 63.228 24.0079ZM65.7069 28.532C65.6907 26.973 64.5782 25.7522 63.1842 25.7823C61.7232 25.8032 60.5784 27.0795 60.6199 28.6432C60.6592 30.1651 61.8063 31.3327 63.2373 31.3095C64.6683 31.2863 65.7253 30.1095 65.7069 28.532Z" fill="white"/>
<path d="M99.8724 31.0947C98.5661 32.9479 96.3734 33.6151 94.4208 32.8159C92.3967 31.9889 91.328 29.9249 91.7273 27.6107C92.0735 25.5976 93.6061 24.1637 95.5495 24.0386C97.7213 23.8996 99.2423 25.0463 99.9348 27.4392L94.0492 29.9295C94.9517 31.6831 96.6089 31.7827 98.4345 30.1426L99.8724 31.0947ZM93.6269 28.4029L97.6475 26.7234C97.0497 25.8802 96.3919 25.6138 95.5702 25.8339C94.4162 26.1351 93.7607 26.9041 93.6269 28.4029Z" fill="white"/>
<path d="M73.2155 24.03C75.8697 24.074 77.767 26.0384 77.7093 28.6885C77.6562 29.8854 77.1373 31.0135 76.2641 31.8304C75.3909 32.6473 74.2332 33.0876 73.0399 33.0566C71.8466 33.0257 70.7131 32.5259 69.8831 31.6649C69.0532 30.8038 68.593 29.6502 68.6017 28.4522C68.664 25.8461 70.6051 23.9883 73.2155 24.03ZM70.5981 28.6236C70.6212 30.1595 71.7522 31.3386 73.1809 31.3177C74.6095 31.2969 75.7082 30.1062 75.7197 28.5634C75.7197 27.0646 74.5657 25.7836 73.1809 25.7836C71.7383 25.7697 70.5843 27.0623 70.5981 28.6236Z" fill="white"/>
<path d="M134.842 24.3904C133.499 27.4968 132.204 30.4967 130.918 33.4942C130.627 34.166 130.327 34.8332 130.041 35.5073C129.376 37.0686 129.379 37.0686 127.408 36.8068C127.927 35.6254 128.395 34.4602 128.954 33.3321C129.111 33.0519 129.196 32.7364 129.199 32.4148C129.202 32.0932 129.124 31.776 128.972 31.4928C127.901 29.1577 126.909 26.7879 125.875 24.4043C127.888 24.0776 127.885 24.0799 128.555 25.7223C129.118 27.1122 129.69 28.4767 130.364 30.1237C130.99 28.5531 131.518 27.2489 132.033 25.9355C132.723 24.1332 132.716 24.1286 134.842 24.3904Z" fill="white"/>
<path d="M116.6 32.8519H114.754V19.5273H116.6V32.8519Z" fill="white"/>
<path d="M90.5998 19.5117V32.7969H88.7695V19.5117H90.5998Z" fill="white"/>
<path d="M76.5531 14.7395C76.1202 14.7261 75.6942 14.6271 75.2995 14.4483C74.9047 14.2695 74.5489 14.0143 74.2525 13.6974C73.956 13.3805 73.7247 13.0081 73.5718 12.6014C73.4188 12.1947 73.3472 11.7618 73.3611 11.3273C73.3595 10.8816 73.4477 10.4402 73.6204 10.0295C73.7931 9.61889 74.0467 9.24751 74.3659 8.93768C74.6852 8.62786 75.0635 8.38599 75.4782 8.22659C75.893 8.06719 76.3355 7.99355 76.7793 8.01009C78.658 8.06801 80.0475 9.60848 79.9644 11.5428C79.9553 11.9793 79.8592 12.4096 79.6817 12.8082C79.5042 13.2069 79.249 13.5658 78.931 13.8638C78.613 14.1617 78.2388 14.3928 77.8303 14.5432C77.4219 14.6936 76.9876 14.7604 76.5531 14.7395ZM79.092 11.325C79.0735 9.86561 78.0279 8.79075 76.6431 8.8116C75.2583 8.83245 74.2243 9.91658 74.2197 11.3598C74.2197 12.8724 75.2837 13.9542 76.7424 13.9079C78.1526 13.8847 79.1035 12.8331 79.0873 11.325H79.092Z" fill="white"/>
<path d="M85.5687 14.7299C84.0708 13.3609 83.4222 11.334 81.9427 9.57108C81.9427 11.0768 81.9681 12.3509 81.9243 13.6412C81.9127 13.9562 81.6773 14.262 81.5458 14.5678C81.4027 14.2713 81.1442 13.9771 81.1372 13.6759C81.098 11.8714 81.1188 10.0645 81.1188 8.25763L81.4096 8.00977C81.7812 8.26921 82.2636 8.45221 82.5013 8.802C83.383 10.09 84.1862 11.4359 85.2571 12.6984C85.2571 11.371 85.241 10.0437 85.2756 8.71862C85.2756 8.52866 85.5341 8.34566 85.6703 8.16034C85.7972 8.32018 86.0326 8.4777 86.0349 8.63754C86.0603 10.595 86.0511 12.5547 86.0511 14.5122L85.5687 14.7299Z" fill="white"/>
<path d="M50.0127 11.9294C49.4842 11.9294 48.9533 11.9642 48.4317 11.9132C48.2263 11.8924 48.0393 11.6816 47.8455 11.5541C48.0278 11.4175 48.2055 11.1696 48.3948 11.1603C49.1934 11.114 49.9966 11.1418 50.7813 11.1418C51.1483 12.5711 50.6428 13.7178 49.408 14.371C48.7185 14.7336 47.9254 14.8461 47.1627 14.6895C46.4001 14.5329 45.7147 14.1169 45.2224 13.5117C44.7301 12.9064 44.4612 12.1492 44.4609 11.3679C44.4607 10.5866 44.7293 9.82924 45.2212 9.22374C45.7057 8.64316 46.3706 8.24297 47.109 8.08751C47.8475 7.93205 48.6166 8.03036 49.2926 8.36664C49.5673 8.51489 49.7219 8.88553 49.9319 9.15425C49.6134 9.12877 49.2603 9.18436 48.9833 9.0639C47.8755 8.58207 46.7122 8.79519 45.939 9.68241C45.5668 10.1296 45.3521 10.6877 45.3283 11.27C45.3046 11.8522 45.473 12.426 45.8075 12.9024C46.4376 13.7965 47.6539 14.2506 48.6717 13.7664C49.288 13.4699 49.7542 12.856 50.2874 12.3765L50.0127 11.9294Z" fill="white"/>
<path d="M53.014 11.7879V13.8079C53.7064 13.8079 54.3849 13.7708 55.052 13.8241C55.3405 13.8473 55.6151 14.0558 55.8967 14.1762C55.599 14.3152 55.3105 14.5584 55.0058 14.577C54.1288 14.6302 53.2448 14.5955 52.25 14.5955V8.1394C53.3002 8.1394 54.3272 8.12087 55.3474 8.15793C55.539 8.15793 55.719 8.41043 55.9036 8.54479C55.7121 8.67914 55.5297 8.91543 55.3312 8.92933C54.6088 8.97566 53.8818 8.94786 53.0694 8.94786V10.9841C53.5608 10.9573 54.0534 10.9619 54.5442 10.998C54.9124 11.0828 55.2712 11.2047 55.6151 11.3617C55.2928 11.5392 54.9503 11.6768 54.595 11.7717C54.0689 11.8126 53.5407 11.818 53.014 11.7879Z" fill="white"/>
<path d="M59.3997 8.94511C59.3997 10.6385 59.425 12.1882 59.3789 13.7102C59.3789 14.0044 59.0858 14.287 58.9311 14.5765C58.8019 14.2986 58.5734 14.0229 58.5664 13.7403C58.5295 12.2044 58.548 10.6663 58.548 9.01461C58.1181 9.01388 57.6888 8.98603 57.2624 8.93121C57.0893 8.9011 56.9508 8.68798 56.8008 8.55594C56.9485 8.41695 57.0893 8.16213 57.2393 8.1575C58.3918 8.12198 59.5458 8.12198 60.7014 8.1575C60.863 8.1575 61.0176 8.38915 61.1768 8.52351C61.0291 8.66481 60.8976 8.9011 60.7337 8.92889C60.29 8.96658 59.8441 8.972 59.3997 8.94511Z" fill="white"/>
<path d="M68.8577 8.94647V14.5061L68.4538 14.6543C68.3107 14.3601 68.0522 14.0683 68.043 13.7718C68.0015 12.2359 68.0245 10.7001 68.0245 9.04145C67.5942 9.0346 67.1648 8.99978 66.739 8.93721C66.5682 8.90246 66.4343 8.68703 66.2773 8.55498C66.4297 8.42063 66.5774 8.17739 66.739 8.17276C67.8914 8.14033 69.0455 8.14033 70.201 8.17276C70.3557 8.17276 70.5034 8.41831 70.6626 8.55035C70.5126 8.68703 70.3764 8.91404 70.201 8.94184C69.7539 8.97448 69.3051 8.97603 68.8577 8.94647Z" fill="white"/>
<path d="M65.1992 14.8695C64.7653 14.4641 64.4145 14.288 64.4099 14.105C64.3637 12.3005 64.3614 10.4936 64.3891 8.68673C64.3891 8.50836 64.6707 8.3323 64.823 8.15625C64.9499 8.35315 65.1807 8.54774 65.1831 8.74696C65.2108 10.6627 65.1992 12.5785 65.1992 14.8695Z" fill="white"/>
<path d="M138.989 1H6.01078C3.2434 1 1 3.25162 1 6.02913V38.2309C1 41.0084 3.2434 43.26 6.01078 43.26H138.989C141.757 43.26 144 41.0084 144 38.2309V6.02913C144 3.25162 141.757 1 138.989 1Z" stroke="white" stroke-miterlimit="10"/>
</svg>
