<svg width="171" height="62" viewBox="0 0 171 62" fill="none" xmlns="http://www.w3.org/2000/svg">
<path d="M26.3614 9.77734L14.5606 30.8573H2.67969L26.3614 9.77734Z" fill="#FBB814"/>
<path d="M26.3594 9.77734V30.8573H14.5586L26.3594 9.77734Z" fill="#FBD46F"/>
<path d="M50.045 30.8573H38.5292L26.3633 9.77734L50.045 30.8573Z" fill="#FBD46F"/>
<path d="M22.6489 30.8555L16.9489 36.524H22.2927L13.137 45.6292H17.4388L10.8125 52.2189L25.3208 44.894H19.7989L31.7333 35.8598H25.9888L31.288 30.8555H22.6489Z" fill="#FDD42F"/>
<path d="M38.5292 30.8573H26.3633V9.77734L38.5292 30.8573Z" fill="#FBB814"/>
<path d="M76.1288 22.6562L71.9072 37.6868H68.3358L65.5036 26.9874L62.5378 37.6868L58.9842 37.7045L54.9141 22.6562H58.1559L60.8189 34.33L63.8916 22.6562H67.267L70.1705 34.2591L72.8513 22.6562H76.1288Z" fill="white"/>
<path d="M78.0419 28.4676C78.5229 27.5376 79.182 26.8202 80.0102 26.3154C80.8385 25.8105 81.7648 25.5625 82.789 25.5625C83.6796 25.5625 84.4634 25.7396 85.1402 26.1028C85.8082 26.4659 86.3515 26.9176 86.7523 27.4579V25.7574H89.8071V37.6879H86.7523V35.9431C86.3604 36.5011 85.826 36.9617 85.1402 37.3337C84.4544 37.6968 83.6618 37.8828 82.7712 37.8828C81.7648 37.8828 80.8385 37.6259 80.0102 37.1034C79.182 36.5897 78.5229 35.8545 78.0419 34.9157C77.561 33.9768 77.3205 32.8962 77.3205 31.6739C77.3116 30.4694 77.561 29.3976 78.0419 28.4676ZM86.3248 29.8316C86.0398 29.3091 85.6479 28.9016 85.158 28.6271C84.6682 28.3436 84.1427 28.2108 83.5816 28.2108C83.0205 28.2108 82.4951 28.3436 82.023 28.6182C81.551 28.8928 81.1591 29.2914 80.8652 29.8139C80.5713 30.3365 80.4199 30.9565 80.4199 31.6739C80.4199 32.3914 80.5713 33.0202 80.8652 33.5605C81.1591 34.1008 81.551 34.5082 82.0319 34.8005C82.5129 35.0839 83.0294 35.2345 83.5816 35.2345C84.1427 35.2345 84.6682 35.0928 85.158 34.8182C85.6479 34.5348 86.0398 34.1362 86.3248 33.6137C86.6098 33.0911 86.7612 32.4622 86.7612 31.7271C86.7612 30.9919 86.6098 30.3631 86.3248 29.8316Z" fill="white"/>
<path d="M96.3108 28.2302V34.0051C96.3108 34.4037 96.4087 34.6959 96.6047 34.8731C96.8006 35.0502 97.1302 35.1388 97.5933 35.1388H99.0005V37.6808H97.0945C94.5384 37.6808 93.2648 36.4497 93.2648 33.9785V28.2302H91.8398V25.7502H93.2648V22.8008H96.3197V25.7502H99.0005V28.2302H96.3108Z" fill="white"/>
<path d="M104.709 28.2302V34.0051C104.709 34.4037 104.807 34.6959 105.003 34.8731C105.199 35.0502 105.529 35.1388 105.992 35.1388H107.399V37.6808H105.493C102.937 37.6808 101.663 36.4497 101.663 33.9785V28.2302H100.238V25.7502H101.663V22.8008H104.718V25.7502H107.399V28.2302H104.709Z" fill="white"/>
<path d="M126.059 22.6562V37.6868H123.03V27.9085L118.978 37.6868H116.68L112.61 27.9085V37.6868H109.582V22.6562H113.029L117.838 33.834L122.647 22.6562H126.059Z" fill="white"/>
<path d="M131.251 37.1122C130.325 36.5985 129.603 35.8811 129.078 34.9511C128.552 34.0211 128.285 32.9405 128.285 31.7182C128.285 30.4959 128.552 29.4242 129.096 28.4854C129.639 27.5554 130.378 26.8291 131.313 26.3242C132.248 25.8105 133.299 25.5625 134.457 25.5625C135.615 25.5625 136.657 25.8194 137.601 26.3242C138.536 26.8379 139.275 27.5554 139.819 28.4854C140.362 29.4154 140.629 30.4959 140.629 31.7182C140.629 32.9405 140.353 34.0122 139.792 34.9511C139.24 35.8811 138.483 36.6073 137.539 37.1122C136.595 37.6259 135.535 37.8739 134.368 37.8739C133.219 37.8739 132.177 37.6259 131.251 37.1122ZM135.918 34.8536C136.399 34.5879 136.791 34.1893 137.076 33.6579C137.361 33.1265 137.512 32.4799 137.512 31.7182C137.512 30.5845 137.209 29.7165 136.612 29.1054C136.016 28.4942 135.277 28.1931 134.413 28.1931C133.549 28.1931 132.818 28.4942 132.24 29.1054C131.652 29.7165 131.367 30.5845 131.367 31.7182C131.367 32.8519 131.652 33.7288 132.222 34.3311C132.792 34.9422 133.513 35.2433 134.377 35.2433C134.92 35.2522 135.437 35.1193 135.918 34.8536Z" fill="white"/>
<path d="M152.971 26.9274C153.852 27.822 154.289 29.0797 154.289 30.6828V37.68H151.261V31.0903C151.261 30.1425 151.02 29.4163 150.548 28.9025C150.076 28.3888 149.426 28.1408 148.598 28.1408C147.761 28.1408 147.102 28.3977 146.621 28.9025C146.14 29.4163 145.899 30.1425 145.899 31.0903V37.68H142.871V25.7583H145.899V27.2463C146.3 26.7325 146.817 26.3251 147.449 26.0328C148.081 25.7405 148.767 25.59 149.515 25.59C150.931 25.5811 152.089 26.0328 152.971 26.9274Z" fill="white"/>
<path d="M164.274 37.6879L160.204 32.6039V37.6879H157.176V21.7539H160.204V30.8148L164.23 25.7573H168.166L162.885 31.7448L168.211 37.6879H164.274Z" fill="white"/>
</svg>
