<svg id="Header_Logo" data-name="Header Logo" xmlns="http://www.w3.org/2000/svg" width="123.578" height="31.232" viewBox="0 0 123.578 31.232">
  <path id="Path_400" data-name="Path 400" d="M17.68,0,8.87,15.511H0Z" fill="#fbb814"/>
  <path id="Path_401" data-name="Path 401" d="M21.728,0V15.511h-8.81Z" transform="translate(-4.049)" fill="#fbd46f"/>
  <path id="Path_402" data-name="Path 402" d="M43.434,15.511h-8.6L25.754,0Z" transform="translate(-8.073)" fill="#fbd46f"/>
  <path id="Path_403" data-name="Path 403" d="M17.68,22.594l-4.255,4.171h3.989l-6.835,6.7h3.211L8.844,38.314l10.831-5.39H15.553l8.91-6.648H20.174l3.956-3.682Z" transform="translate(-2.772 -7.082)" fill="#fdd42f"/>
  <path id="Path_404" data-name="Path 404" d="M34.836,15.511H25.754V0Z" transform="translate(-8.073)" fill="#fbb814"/>
  <path id="Path_405" data-name="Path 405" d="M72.639,13.8l-3.152,11.06H66.821L64.706,16.99l-2.214,7.873-2.653.013L56.8,13.8h2.42l1.988,8.59L63.5,13.8h2.52l2.168,8.538,2-8.538Z" transform="translate(-17.804 -4.327)" fill="#121212"/>
  <path id="Path_406" data-name="Path 406" d="M81.707,19.054a3.884,3.884,0,0,1,3.544-2.138,3.7,3.7,0,0,1,1.755.4,3.616,3.616,0,0,1,1.2,1V17.059H90.49v8.779H88.209V24.554a3.417,3.417,0,0,1-1.2,1.023,3.775,3.775,0,0,1-1.769.4,3.833,3.833,0,0,1-2.061-.574,4.009,4.009,0,0,1-1.469-1.61,5.1,5.1,0,0,1-.539-2.385A4.932,4.932,0,0,1,81.707,19.054Zm6.184,1a2.217,2.217,0,0,0-.871-.886,2.331,2.331,0,0,0-1.177-.306,2.274,2.274,0,0,0-2.028,1.18,2.717,2.717,0,0,0-.332,1.369,2.828,2.828,0,0,0,.332,1.388,2.379,2.379,0,0,0,.871.912,2.272,2.272,0,0,0,1.157.319,2.4,2.4,0,0,0,1.177-.306,2.259,2.259,0,0,0,.871-.886,2.828,2.828,0,0,0,.326-1.388A2.872,2.872,0,0,0,87.89,20.057Z" transform="translate(-25.442 -5.302)" fill="#121212"/>
  <path id="Path_407" data-name="Path 407" d="M100.291,17.95V22.2a.821.821,0,0,0,.219.639,1.107,1.107,0,0,0,.738.2H102.3V24.9h-1.423q-2.862,0-2.859-2.724V17.95H96.953V16.125h1.064v-2.17H100.3v2.17h2V17.95Z" transform="translate(-30.39 -4.374)" fill="#121212"/>
  <path id="Path_408" data-name="Path 408" d="M109.424,17.95V22.2a.821.821,0,0,0,.219.639,1.106,1.106,0,0,0,.738.2h1.05V24.9h-1.423q-2.863,0-2.859-2.724V17.95h-1.063V16.125h1.063v-2.17h2.281v2.17h2V17.95Z" transform="translate(-33.253 -4.374)" fill="#121212"/>
  <path id="Path_409" data-name="Path 409" d="M128.547,13.8v11.06h-2.261v-7.2l-3.026,7.2h-1.715l-3.039-7.2v7.2h-2.261V13.8h2.573l3.591,8.225L126,13.8Z" transform="translate(-36.438 -4.327)" fill="#121212"/>
  <path id="Path_410" data-name="Path 410" d="M138.8,25.415a4.1,4.1,0,0,1-1.622-1.59,4.709,4.709,0,0,1-.592-2.379,4.6,4.6,0,0,1,.6-2.379,4.184,4.184,0,0,1,1.656-1.59,4.852,4.852,0,0,1,2.347-.56,4.942,4.942,0,0,1,2.347.56,4.228,4.228,0,0,1,1.656,1.59,4.586,4.586,0,0,1,.6,2.379,4.485,4.485,0,0,1-.625,2.379,4.253,4.253,0,0,1-1.683,1.59,4.928,4.928,0,0,1-2.367.56A4.772,4.772,0,0,1,138.8,25.415Zm3.484-1.662a2.146,2.146,0,0,0,.864-.88,2.95,2.95,0,0,0,.325-1.427,2.613,2.613,0,0,0-.671-1.923,2.225,2.225,0,0,0-1.642-.671,2.162,2.162,0,0,0-1.622.671,2.634,2.634,0,0,0-.652,1.923,2.675,2.675,0,0,0,.638,1.923,2.12,2.12,0,0,0,1.609.671A2.3,2.3,0,0,0,142.28,23.753Z" transform="translate(-42.812 -5.302)" fill="#121212"/>
  <path id="Path_411" data-name="Path 411" d="M159.985,17.93a3.74,3.74,0,0,1,.984,2.763v5.149h-2.261V20.993a2.271,2.271,0,0,0-.531-1.61,1.891,1.891,0,0,0-1.456-.56,1.958,1.958,0,0,0-1.476.56,2.243,2.243,0,0,0-.539,1.61v4.849h-2.261V17.069h2.261v1.095a3.081,3.081,0,0,1,1.157-.893,3.673,3.673,0,0,1,1.543-.326A3.469,3.469,0,0,1,159.985,17.93Z" transform="translate(-47.784 -5.312)" fill="#121212"/>
  <path id="Path_412" data-name="Path 412" d="M173.3,24.559l-3.039-3.741v3.741H168V12.834h2.261V19.5l3.005-3.721H176.2l-3.943,4.406,3.976,4.373Z" transform="translate(-52.66 -4.023)" fill="#121212"/>
</svg>
