<svg width="36" height="36" viewBox="0 0 36 36" fill="none" xmlns="http://www.w3.org/2000/svg">
<g clip-path="url(#clip0_557_262)">
<path d="M2.48438 15.5179L20.4844 34.1386L22.3464 33.5179L22.9671 32.2765L23.5878 30.4145V29.1731L22.3464 27.9317L20.4844 25.449L21.1051 24.2076L22.3464 22.9662L21.1051 21.1041L19.8637 19.8627L17.3809 16.7593L15.5189 14.8972L14.2775 14.2765H12.4154L11.174 16.1386L9.31196 15.5179L7.44989 13.0352H5.58782H3.72575L2.48438 14.8972V15.5179Z" fill="#FFC74C"/>
<path d="M27.9825 0C28.6315 0.142753 29.2974 0.236669 29.9267 0.435772C33.6932 1.62287 36.1963 5.28655 35.9878 9.2639C35.8801 11.1911 35.1412 13.0293 33.8851 14.4949C32.629 15.9605 30.9254 16.9721 29.0373 17.3736C27.9002 17.6196 26.7252 17.6337 25.5827 17.4149C24.4292 17.1895 22.8306 17.9981 22.5038 19.6238C22.4936 19.6934 22.4795 19.7624 22.4615 19.8304C22.3516 20.1817 22.3873 20.4559 22.6493 20.7771C23.4177 21.7163 23.3219 23.0593 22.4728 23.9524C22.0698 24.376 21.6378 24.7732 21.1963 25.2043C21.2959 25.3123 21.3691 25.3987 21.449 25.4786C22.0858 26.1172 22.7273 26.7511 23.3613 27.3935C24.9684 29.022 24.9778 31.3549 23.381 32.989C22.7235 33.6596 22.0595 34.3189 21.3936 34.9782C20.8525 35.5126 20.2721 35.5088 19.7292 34.9782C19.5207 34.7735 19.3187 34.5621 19.0078 34.2466C18.8343 34.4879 18.6477 34.7196 18.449 34.9406C17.0279 36.3616 15.139 36.3494 13.716 34.9303C9.56637 30.7779 5.41328 26.629 1.25673 22.4836C0.649969 21.8825 0.201002 21.2166 0 20.3874V19.4735C0.187852 18.3973 0.874452 17.6384 1.71791 16.8993C1.46713 16.673 1.2417 16.4879 1.03694 16.2823C0.466813 15.7103 0.473388 15.1487 1.04446 14.5711C1.68754 13.9225 2.33406 13.2766 2.98403 12.6336C4.62774 11.0126 6.95993 11.0145 8.60175 12.6336C9.24327 13.2676 9.87727 13.909 10.516 14.5467C10.5949 14.6256 10.6813 14.6988 10.7893 14.7975C11.2298 14.3467 11.6346 13.9052 12.0676 13.4967C12.9458 12.6712 14.2927 12.5848 15.217 13.3436C15.5382 13.6075 15.8115 13.6423 16.1628 13.5315C16.2408 13.507 16.3244 13.5014 16.4042 13.4836C17.8366 13.1661 18.727 11.871 18.5814 10.4116C18.4978 9.57759 18.4255 8.72764 18.4931 7.89648C18.7852 4.36147 21.3832 1.26881 24.7965 0.346551C25.3356 0.200981 25.8907 0.113639 26.4383 0H27.9825ZM17.4224 15.3919L20.5933 18.5851L20.737 18.2461C21.1605 17.2393 21.9121 16.4054 22.8696 15.8799C23.8271 15.3544 24.9342 15.1682 26.011 15.3516C26.8545 15.4992 27.718 15.4903 28.5582 15.3253C31.8071 14.6876 34.1374 11.6118 33.8745 8.30314C33.6058 4.93061 30.8801 2.25399 27.5645 2.115C23.2223 1.92716 19.9133 5.68382 20.6459 9.97297C20.8817 11.3526 20.5623 12.5979 19.7282 13.7127C19.1443 14.4899 18.3413 15.0747 17.4224 15.3919V15.3919ZM3.23951 15.3919L20.6158 32.7665C21.0601 32.3241 21.542 31.862 22.0031 31.3803C22.3525 31.014 22.4822 30.5604 22.4474 30.0551C22.4127 29.5498 22.1506 29.161 21.7993 28.8107C16.9277 23.9415 12.0576 19.0722 7.18911 14.203C7.09105 14.1038 6.9879 14.0097 6.88009 13.9212C6.232 13.4066 5.29368 13.3943 4.67846 13.9456C4.15811 14.4105 3.68942 14.9374 3.24327 15.3929L3.23951 15.3919ZM3.10144 18.4142C2.93801 18.5973 2.78209 18.7898 2.61021 18.9617C1.93112 19.6482 1.92924 20.1657 2.61021 20.8504C6.78929 25.0246 10.9662 29.1983 15.1409 33.3713C15.245 33.4824 15.3578 33.5851 15.4781 33.6784C15.8538 33.9507 16.33 33.9695 16.686 33.6784C17.0016 33.4258 17.2768 33.1243 17.5548 32.8594L3.10144 18.4142ZM12.3137 16.2165L19.7865 23.6932C20.0899 23.3805 20.4205 23.0358 20.7567 22.693C21.1475 22.2967 21.1493 22.1999 20.7567 21.8064L14.1772 15.2323C14.1274 15.1825 14.0833 15.1318 14.0279 15.0848C13.8447 14.9139 13.6522 14.897 13.4643 15.0745C13.0689 15.4624 12.68 15.8615 12.3175 16.2175L12.3137 16.2165Z" fill="black"/>
</g>
<defs>
<clipPath id="clip0_557_262">
<rect width="36" height="36" fill="white"/>
</clipPath>
</defs>
</svg>
