<svg xmlns="http://www.w3.org/2000/svg" width="48.213" height="42" viewBox="0 0 48.213 42">
  <g id="Permit_Design" data-name="Permit Design" opacity="0.2">
    <path id="Path_478" data-name="Path 478" d="M6,40c11.333.167,34.3.6,35.5,1l1-22.5h4L37.5,1h-27l-9,17.5H6Z" fill="#f5f5f5" stroke="#000" stroke-width="1"/>
    <path id="Path_479" data-name="Path 479" d="M39.5,14l-6-13H15L9.5,12.5V14h30Z" fill="#ffc74c"/>
    <path id="Path_480" data-name="Path 480" d="M48.071,18.135,38.825.641A1.211,1.211,0,0,0,37.761,0H24.151c-.014,0-.028,0-.045,0s-.031,0-.045,0H10.452A1.211,1.211,0,0,0,9.388.641L.141,18.135A1.2,1.2,0,0,0,1.205,19.9H4.938V39.589H2.548a1.205,1.205,0,1,0,0,2.411h43.2a1.205,1.205,0,0,0,0-2.411H43.185V19.9h3.822a1.2,1.2,0,0,0,1.064-1.767ZM29.885,9.281,29.468,6.65h5.186l1.264,2.631ZM36.745,11l1.1,2.283H30.519L30.157,11ZM32.733,2.645l1.1,2.283H29.2l-.365-2.283Zm-11.7,0h6.058l.362,2.283H20.669ZM20.4,6.65h7.328l.417,2.631H19.981ZM19.705,11h8.709l.362,2.283H19.344ZM15.387,2.645h3.9l-.362,2.283H14.292ZM18.655,6.65l-.42,2.631H12.2l1.26-2.631ZM17.963,11,17.6,13.286H10.28L11.378,11ZM28.979,39.589H19.144V38.243a.157.157,0,0,1,.155-.158h9.522a.16.16,0,0,1,.158.158v1.347Zm-7.924-3.227V25.095h6.009V36.363ZM30.7,39.589V38.243a1.883,1.883,0,0,0-1.88-1.88h-.035V24.234a.861.861,0,0,0-.861-.861H20.194a.861.861,0,0,0-.861.861V36.363H19.3a1.88,1.88,0,0,0-1.877,1.88v1.347H7.349V19.9H40.774V39.589ZM3.206,17.491l7.972-15.08h1.646L7.28,13.971A1.2,1.2,0,0,0,8.365,15.7h31.39a1.206,1.206,0,0,0,1.088-1.725L35.295,2.411h1.739l7.972,15.08Z"/>
    <path id="Path_481" data-name="Path 481" d="M15.7,23.371H10.634a.861.861,0,0,0-.861.861v5.739a.861.861,0,0,0,.861.861H15.7a.861.861,0,0,0,.861-.861V24.232A.861.861,0,0,0,15.7,23.371Zm-.861,5.739H11.5V25.093h3.344Z"/>
    <path id="Path_482" data-name="Path 482" d="M32.419,30.832h5.066a.861.861,0,0,0,.861-.861V24.232a.861.861,0,0,0-.861-.861H32.419a.861.861,0,0,0-.861.861v5.739A.861.861,0,0,0,32.419,30.832Zm.861-5.739h3.344V29.11H33.28V25.093Z"/>
  </g>
</svg>
