<svg width="34" height="34" viewBox="0 0 34 34" fill="none" xmlns="http://www.w3.org/2000/svg">
<g clip-path="url(#clip0_557_273)">
<path d="M9.10603 20.0352H30.356L33.3917 30.9637H32.7846H6.67746L6.07031 30.3566L9.10603 20.0352Z" fill="black"/>
<path d="M5.9687 26.421H1.09534V6.08548L6.20876 1.11118H19.564L19.5336 18.324H20.6594V0.5556C20.655 0.408217 20.6013 0.266723 20.5072 0.154347C20.3994 0.0539672 20.258 -0.00118475 20.1117 1.93073e-05H5.71768L0 5.61509V27.0074C0.0043811 27.1548 0.0580268 27.2963 0.152131 27.4087C0.259967 27.509 0.40132 27.5642 0.547671 27.563H5.71768L5.9687 26.421Z" fill="black"/>
<path d="M34.0005 30.7018L31.037 19.2754H8.84632L5.88281 30.7025L6.42501 34.0014H33.4583L34.0005 30.7018ZM7.4385 32.7853L7.14154 30.9784H32.7391L32.4418 32.7853H7.4385ZM30.113 20.4912L32.719 30.5395H7.16375L9.77006 20.4912H30.113V20.4912Z" fill="black"/>
<path d="M15.5365 21.25L15.2812 23.4445H19.7423V21.25H15.5365Z" fill="#FFC74C"/>
<path d="M10.0117 23.4445H14.8799L15.1352 21.25H10.5798L10.0117 23.4445Z" fill="#FFC74C"/>
<path d="M19.7399 23.8516H15.2317L14.9883 25.9458H19.7399V23.8516Z" fill="#FFC74C"/>
<path d="M19.7431 26.3496H14.944L14.5898 29.393H19.7431V26.3496Z" fill="#FFC74C"/>
<path d="M20.1406 26.3496V29.393H25.2939L24.9401 26.3496H20.1406Z" fill="#FFC74C"/>
<path d="M9.2574 26.3496L8.46875 29.393H14.1889L14.5427 26.3508L9.2574 26.3496Z" fill="#FFC74C"/>
<path d="M9.90248 23.8516L9.35938 25.9458H14.5857L14.8291 23.8516H9.90248Z" fill="#FFC74C"/>
<path d="M24.6492 23.8516H20.1406V25.9458H24.8923L24.6492 23.8516Z" fill="#FFC74C"/>
<path d="M30.5208 25.9458L29.9777 23.8516H25.0508L25.2942 25.9458H30.5208Z" fill="#FFC74C"/>
<path d="M20.1406 21.25V23.4445H24.6017L24.3464 21.25H20.1406Z" fill="#FFC74C"/>
<path d="M25.0056 23.4445H29.8738L29.3048 21.25H24.75L25.0056 23.4445Z" fill="#FFC74C"/>
<path d="M30.6279 26.3496H25.3438L25.6973 29.393H31.4174L30.6279 26.3496Z" fill="#FFC74C"/>
<path d="M17.5625 4.17149L5.15867 4.14063L4.24589 5.28265L17.5625 5.28265V4.17149Z" fill="black"/>
<path d="M17.8789 6.94922L3.04099 6.94922V8.06038H17.8789V6.94922Z" fill="black"/>
<path d="M17.8789 9.72656L3.04099 9.72656V10.8377H17.8789V9.72656Z" fill="black"/>
<path d="M17.8789 12.5059L3.04099 12.5059V13.617H17.8789V12.5059Z" fill="black"/>
<path d="M17.8789 15.2832L3.04099 15.2832V16.3944H17.8789V15.2832Z" fill="black"/>
</g>
<defs>
<clipPath id="clip0_557_273">
<rect width="34" height="34" fill="white"/>
</clipPath>
</defs>
</svg>
