<svg width="39" height="39" viewBox="0 0 39 39" fill="none" xmlns="http://www.w3.org/2000/svg">
<path d="M37.1091 15.4934L34.6023 14.7947L33.5339 12.1646L34.8078 9.90426C35.0894 9.41009 35.2016 8.8374 35.1274 8.27351C35.0532 7.70961 34.7966 7.18545 34.3969 6.78093L32.2599 4.64391C31.8547 4.24531 31.3306 3.98957 30.7671 3.91542C30.2036 3.84127 29.6312 3.95273 29.1367 4.23294L26.8764 5.50694L24.2463 4.43843L23.5477 1.93154C23.3894 1.38493 23.0611 0.902994 22.6103 0.555669C22.1595 0.208345 21.6098 0.0137059 21.0409 1.4046e-06H18.041C17.4683 -0.000594861 16.9117 0.188665 16.4581 0.538164C16.0045 0.887663 15.6796 1.37768 15.5342 1.93154L14.8355 4.43843L12.2054 5.50694L9.9452 4.23294C9.45104 3.95139 8.87837 3.83916 8.3145 3.91335C7.75062 3.98755 7.22647 4.24411 6.82197 4.64391L4.64392 6.78093C4.24533 7.18616 3.9896 7.71022 3.91545 8.27378C3.8413 8.83734 3.95277 9.40971 4.23297 9.90426L5.50692 12.1646L4.43844 14.7947L1.93163 15.4934C1.38504 15.6517 0.903123 15.9801 0.555809 16.4309C0.208495 16.8816 0.0138627 17.4314 0.000158626 18.0003V21.0003C-0.00623537 21.5744 0.180837 22.1339 0.531228 22.5887C0.881619 23.0435 1.37492 23.367 1.93163 23.5072L4.43844 24.2059L5.50692 26.836L4.23297 29.0963C3.95142 29.5905 3.83919 30.1632 3.91339 30.7271C3.98758 31.291 4.24413 31.8152 4.64392 32.2197L6.78087 34.3567C7.18609 34.7553 7.71013 35.011 8.27367 35.0852C8.83722 35.1593 9.40957 35.0479 9.90411 34.7677L12.1643 33.4937L14.7944 34.5622L15.4931 37.0691C15.6514 37.6157 15.9797 38.0976 16.4305 38.4449C16.8813 38.7923 17.431 38.9869 17.9999 39.0006H20.9998C21.5724 39.0012 22.1291 38.8119 22.5827 38.4624C23.0363 38.1129 23.3612 37.6229 23.5066 37.0691L24.2052 34.5622L26.8353 33.4937L29.0956 34.7677C29.5897 35.0492 30.1624 35.1614 30.7263 35.0872C31.2902 35.0131 31.8143 34.7565 32.2188 34.3567L34.3558 32.2197C34.7556 31.8152 35.0121 31.291 35.0863 30.7271C35.1605 30.1632 35.0483 29.5905 34.7667 29.0963L33.4928 26.836L34.5612 24.2059L37.068 23.5072C37.6146 23.3489 38.0966 23.0205 38.4439 22.5697C38.7912 22.119 38.9858 21.5692 38.9995 21.0003V18.0003C39.0105 17.4311 38.8302 16.8747 38.4875 16.4202C38.1447 15.9657 37.6594 15.6393 37.1091 15.4934V15.4934ZM36.8215 21.0414C36.8202 21.1308 36.7921 21.2178 36.7408 21.2911C36.6895 21.3644 36.6174 21.4206 36.5338 21.4524L32.9996 22.3976L31.1092 27.0004L32.9174 30.2059C32.9657 30.2842 32.9839 30.3773 32.9688 30.4679C32.9537 30.5586 32.9062 30.6407 32.8352 30.6991L30.6983 32.8361C30.6344 32.8986 30.5528 32.94 30.4646 32.9547C30.3765 32.9694 30.2859 32.9567 30.2051 32.9183L26.9997 31.1101L22.3971 33.0005L21.4108 36.5348C21.3841 36.6217 21.3292 36.6971 21.2547 36.7492C21.1803 36.8014 21.0906 36.8271 20.9998 36.8225H17.9999C17.9119 36.8157 17.8274 36.7854 17.7551 36.7348C17.6828 36.6842 17.6254 36.6151 17.5889 36.5348L16.6437 33.0005L12.0411 31.1101L8.83563 32.9183C8.75739 32.9666 8.66431 32.9848 8.57365 32.9697C8.48298 32.9546 8.40086 32.9071 8.34249 32.8361L6.20554 30.6991C6.14302 30.6352 6.10162 30.5536 6.08692 30.4654C6.07222 30.3773 6.08494 30.2867 6.12335 30.2059L7.93154 27.0004L6.04116 22.3976L2.50697 21.4113C2.42011 21.3846 2.34464 21.3297 2.29253 21.2552C2.24042 21.1808 2.21465 21.0911 2.2193 21.0003V18.0003C2.2206 17.9108 2.24872 17.8239 2.3 17.7506C2.35129 17.6773 2.42339 17.6211 2.50697 17.5893L6.04116 16.603L7.93154 12.0002L6.12335 8.83575C6.07511 8.75751 6.05686 8.66443 6.07197 8.57376C6.08708 8.48309 6.13453 8.40097 6.20554 8.34259L8.34249 6.20558C8.4064 6.14306 8.48795 6.10165 8.57614 6.08696C8.66433 6.07226 8.7549 6.08497 8.83563 6.12338L12.0411 7.93163L16.6437 6.04119L17.63 2.50689C17.6567 2.42003 17.7116 2.34456 17.7861 2.29245C17.8605 2.24034 17.9502 2.21456 18.041 2.21921H21.0409C21.1289 2.22601 21.2134 2.25629 21.2857 2.30689C21.358 2.35749 21.4154 2.42656 21.4519 2.50689L22.4381 6.04119L27.0408 7.97273L30.2462 6.16448C30.3245 6.11624 30.4176 6.09799 30.5082 6.1131C30.5989 6.12821 30.681 6.17566 30.7394 6.24667L32.8763 8.38369C32.9389 8.4476 32.9803 8.52916 32.995 8.61735C33.0096 8.70554 32.9969 8.79612 32.9585 8.87685L31.1503 12.0824L32.9996 16.6441L36.5338 17.6304C36.6207 17.6571 36.6961 17.712 36.7482 17.7865C36.8004 17.8609 36.8261 17.9506 36.8215 18.0414V21.0414Z" fill="black"/>
<path d="M19.0752 29.5749C24.8748 29.5749 29.5762 24.8733 29.5762 19.0736C29.5762 13.2739 24.8748 8.57227 19.0752 8.57227C13.2757 8.57227 8.57422 13.2739 8.57422 19.0736C8.57422 24.8733 13.2757 29.5749 19.0752 29.5749Z" stroke="black" stroke-width="1.6"/>
<path d="M22.2447 18.9482L22.244 18.9493L18.2063 25.6996C18.2062 25.6998 18.2061 25.7 18.206 25.7002C18.1366 25.8169 18.0248 25.9191 17.8765 25.9668C17.7248 26.0156 17.5641 25.9973 17.429 25.9224C17.2972 25.8493 17.2071 25.7333 17.1577 25.6107C17.1083 25.4882 17.0966 25.3538 17.1212 25.2267L17.1211 25.227L22.2447 18.9482ZM22.2447 18.9482C22.2999 18.8551 22.3298 18.7513 22.3362 18.6484C22.3427 18.5455 22.326 18.44 22.2849 18.3423C22.2438 18.2446 22.177 18.1521 22.0832 18.0823C21.9883 18.0117 21.8706 17.9685 21.7433 17.9683H21.7426M22.2447 18.9482L21.7426 17.9683M21.7426 17.9683H19.8558L20.66 13.7753C20.685 13.6483 20.6736 13.5138 20.6246 13.3912C20.5754 13.2682 20.4853 13.1517 20.3534 13.0783C20.2181 13.003 20.057 12.9844 19.9049 13.0334C19.7565 13.0812 19.6447 13.1836 19.5753 13.3005C19.5751 13.3008 19.5749 13.3012 19.5746 13.3015L15.5373 20.052L15.5367 20.0531C15.4814 20.1462 15.4516 20.25 15.4451 20.3529C15.4386 20.4558 15.4553 20.5613 15.4964 20.659C15.5375 20.7567 15.6044 20.8492 15.6981 20.919C15.793 20.9896 15.9107 21.0328 16.0381 21.033H16.0387H17.9254M21.7426 17.9683L17.9254 21.033M17.9254 21.033L17.1213 25.226L17.9254 21.033Z" fill="#FFC74C" stroke="black" stroke-width="0.8"/>
</svg>
