<svg xmlns="http://www.w3.org/2000/svg" xmlns:xlink="http://www.w3.org/1999/xlink" width="43" height="43" viewBox="0 0 43 43">
  <defs>
    <clipPath id="clip-path">
      <rect id="Rectangle_212" data-name="Rectangle 212" width="43" height="43" fill="#fff"/>
    </clipPath>
  </defs>
  <g id="Services_-_Solar_Shade" data-name="Services - Solar Shade" clip-path="url(#clip-path)">
    <path id="Path_497" data-name="Path 497" d="M3.5,25.5H8.875V20.8H20.969l.672-5.375h5.375V4H3.5Z" transform="translate(1.203 1.375)" fill="#ffc74c"/>
    <path id="Path_498" data-name="Path 498" d="M30.721,41.218h-29V1.734h29v8.848l1.72-1.926V.867A1.019,1.019,0,0,0,32.2.241.9.9,0,0,0,31.581,0H.86A.731.731,0,0,0,.239.241.743.743,0,0,0,0,.867V42.133a1.019,1.019,0,0,0,.239.626A.9.9,0,0,0,.86,43H31.629a1,1,0,0,0,.621-.241.919.919,0,0,0,.239-.626V23.306l-1.768,1.926Z" transform="translate(-0.001 -0.001)"/>
    <path id="Path_499" data-name="Path 499" d="M30.378,7.592a.9.9,0,0,0-.621-.241.838.838,0,0,0-.621.289L12.366,25.216a.864.864,0,0,0,.048,1.252l3.679,3.563a.9.9,0,0,0,.621.241.839.839,0,0,0,.621-.289l16.77-17.624a.864.864,0,0,0-.048-1.252ZM16.618,28.153,14.23,25.794,29.805,9.422l2.437,2.359Z" transform="translate(4.167 2.527)"/>
    <path id="Path_500" data-name="Path 500" d="M33.845,7.648,30.166,4.085a.889.889,0,0,0-1.242,0L26.2,6.926a.906.906,0,0,0,0,1.252l3.679,3.563a.9.9,0,0,0,.621.241.838.838,0,0,0,.621-.289l2.723-2.841a.92.92,0,0,0,.239-.626A.893.893,0,0,0,33.845,7.648ZM30.5,9.863,28.063,7.5l1.481-1.589,2.437,2.359Z" transform="translate(8.92 1.317)"/>
    <path id="Path_501" data-name="Path 501" d="M9.349,30.92,14.8,28.946a.768.768,0,0,0,.334-.193l1.72-1.83a.918.918,0,0,0,.239-.626.85.85,0,0,0-.287-.626l-3.679-3.563a.889.889,0,0,0-1.242,0l-1.768,1.83a.777.777,0,0,0-.191.337L8.154,29.813a.92.92,0,0,0,.239.915.891.891,0,0,0,.956.193Zm2.2-5.875,1-1.059,2.437,2.359-1,1.011-3.583,1.3Z" transform="translate(2.79 7.513)"/>
    <path id="Path_502" data-name="Path 502" d="M9.546,26.364H3.515a.616.616,0,0,1-.239-.048.7.7,0,0,1-.329-.266.712.712,0,0,1-.119-.408L2.913,4.058A.693.693,0,0,1,3.1,3.565a.682.682,0,0,1,.476-.218h23.81a.682.682,0,0,1,.476.218.692.692,0,0,1,.185.493V15.987h-5.93v5.383H9.546ZM4.21,21.231v4.045H8.241V21.231Zm11.266-5.244V19.95h5.317V15.987Zm-5.931,0V19.95h4.611V15.987Zm-5.312,0V19.95H8.226V15.987Zm17.88-5.834v4.414h4.61V10.153Zm-6.637,0v4.414h5.317V10.153Zm-5.931,0v4.414h4.611V10.153Zm-5.312,0v4.414H8.226V10.153Zm17.88-5.385V8.733h4.61V4.768Zm-6.637,0V8.733h5.317V4.768Zm-5.931,0V8.733h4.611V4.768Zm-5.312,0V8.733H8.226V4.768Z" transform="translate(0.972 1.151)"/>
  </g>
</svg>
