<svg id="Serviecs_-_Survey" data-name="Serviecs - Survey" xmlns="http://www.w3.org/2000/svg" width="44.219" height="44.22" viewBox="0 0 44.219 44.22">
  <path id="Path_487" data-name="Path 487" d="M42.075,17.567l-2.842-.792-1.211-2.982,1.444-2.563A2.956,2.956,0,0,0,39,7.688L36.577,5.265A2.965,2.965,0,0,0,33.036,4.8L30.473,6.244,27.491,5.032,26.7,2.19A3.035,3.035,0,0,0,23.857,0h-3.4a2.935,2.935,0,0,0-2.842,2.19l-.792,2.842L13.839,6.244,11.276,4.8a2.956,2.956,0,0,0-3.541.466L5.265,7.688A2.965,2.965,0,0,0,4.8,11.23l1.444,2.563L5.032,16.775l-2.842.792A3.035,3.035,0,0,0,0,20.409v3.4a2.9,2.9,0,0,0,2.19,2.842l2.842.792,1.211,2.982L4.8,32.99a2.956,2.956,0,0,0,.466,3.541l2.423,2.423a2.965,2.965,0,0,0,3.541.466l2.563-1.444,2.982,1.211.792,2.842a3.035,3.035,0,0,0,2.842,2.19h3.4a2.936,2.936,0,0,0,2.842-2.19l.792-2.842,2.982-1.211,2.563,1.444a2.956,2.956,0,0,0,3.541-.466l2.423-2.423a2.956,2.956,0,0,0,.466-3.541l-1.444-2.563,1.211-2.982,2.842-.792a3.035,3.035,0,0,0,2.19-2.842v-3.4a2.883,2.883,0,0,0-2.143-2.842Zm-.326,6.29a.507.507,0,0,1-.326.466l-4.007,1.072-2.143,5.219,2.05,3.635a.431.431,0,0,1-.093.559L34.806,37.23a.5.5,0,0,1-.559.093l-3.634-2.05-5.219,2.143-1.118,4.007a.463.463,0,0,1-.466.326h-3.4a.559.559,0,0,1-.466-.326l-1.072-4.007-5.219-2.143-3.634,2.05a.431.431,0,0,1-.559-.093L7.036,34.807a.5.5,0,0,1-.093-.559l2.05-3.635L6.85,25.395,2.842,24.276a.463.463,0,0,1-.326-.466v-3.4a.507.507,0,0,1,.326-.466L6.85,18.825l2.143-5.219-2.05-3.588a.431.431,0,0,1,.093-.559L9.459,7.036a.5.5,0,0,1,.559-.093l3.634,2.05L18.871,6.85l1.118-4.007a.463.463,0,0,1,.466-.326h3.4a.559.559,0,0,1,.466.326L25.441,6.85l5.219,2.19,3.634-2.05a.431.431,0,0,1,.559.093l2.423,2.423a.5.5,0,0,1,.093.559L35.319,13.7l2.1,5.172,4.007,1.118a.463.463,0,0,1,.326.466Z" transform="translate(0 0)"/>
  <path id="Path_488" data-name="Path 488" d="M18.941,30.846A11.907,11.907,0,1,0,7.035,18.94,11.906,11.906,0,0,0,18.941,30.846Z" transform="translate(2.686 2.686)" fill="none" stroke="#000" stroke-width="1.6"/>
  <path id="Path_489" data-name="Path 489" d="M20.5,17.487v0l-4.578,7.653h0a.779.779,0,0,1-.428.345Zm0,0a.859.859,0,0,0,.118-.384h0a.872.872,0,0,0-.066-.392l-.509.214m.458.562-.458-.562m0,0,.509-.214a.807.807,0,0,0-.261-.336.746.746,0,0,0-.444-.149h-2.02l.889-4.636m1.327,5.335-2.216-.7.889-4.636m1.575,5.9L18.666,11.1a.8.8,0,0,0-.351-.4.738.738,0,0,0-.587-.059.777.777,0,0,0-.429.346v0L12.72,18.637v0a.858.858,0,0,0-.117.384.87.87,0,0,0,.066.392.807.807,0,0,0,.261.336.746.746,0,0,0,.444.149h2.02L14.5,24.535h0l.984.953Zm-2.855-1.262h0Zm.195-4.849v0ZM15.784,19.9h0Z" transform="translate(4.811 4.048)" fill="#ffc74c" stroke="#000" stroke-width="0.8"/>
</svg>
