<svg xmlns="http://www.w3.org/2000/svg" xmlns:xlink="http://www.w3.org/1999/xlink" width="185" height="22.5" viewBox="0 0 185 22.5">
  <defs>
    <clipPath id="clip-path">
      <rect id="Rectangle_796" data-name="Rectangle 796" width="185" height="22.5" transform="translate(0 0)" fill="#f7f7f7" stroke="#e6e6e6" stroke-width="1"/>
    </clipPath>
  </defs>
  <g id="small-notch" clip-path="url(#clip-path)">
    <path id="Union_10" data-name="Union 10" d="M114.012,27.567c-9.111-.034-17.369-.014-20.551,0v0l-.693,0-.691,0v0c-3.182-.01-11.441-.03-20.557,0-11.666.051-15.867-2.771-17.633-3.611S38.381,13.185,38.293,13.108C25.535,3.184,0,3.76,0,3.76V0H185.537V3.76S160,3.184,147.244,13.108c-.088.077-13.824,10-15.594,10.848-1.75.831-5.9,3.611-17.338,3.611Z" transform="translate(-0.076 -4.695)" fill="#f7f7f7" stroke="#e6e6e6" stroke-width="1"/>
  </g>
</svg>
